<svg xmlns="http://www.w3.org/2000/svg" x="0px" y="0px"
width="50" height="50"
viewBox="0 0 172 172"
style=" fill:#000000;"><g fill="none" fill-rule="nonzero" stroke="none" stroke-width="1" stroke-linecap="butt" stroke-linejoin="miter" stroke-miterlimit="10" stroke-dasharray="" stroke-dashoffset="0" font-family="none" font-weight="none" font-size="none" text-anchor="none" style="mix-blend-mode: normal"><path d="M0,172v-172h172v172z" fill="none"></path><g fill="#3498db"><path d="M148.9692,76.49413c0.02867,-0.6536 0.09747,-1.29573 0.09747,-1.9608c0,-25.32987 -20.5368,-45.86667 -45.86667,-45.86667c-17.83067,0 -33.25333,10.1996 -40.83853,25.0604c-3.33107,-1.34733 -6.9488,-2.12707 -10.76147,-2.12707c-14.50533,0 -26.3676,10.80733 -28.2768,24.79093c-13.55933,4.61533 -23.3232,17.4236 -23.3232,32.5424c0,19.00027 15.39973,34.4 34.4,34.4h103.2c19.00027,0 34.4,-15.39973 34.4,-34.4c0,-15.00987 -9.62627,-27.73787 -23.0308,-32.4392zM111.8,74.53333c4.7472,0 8.6,3.8528 8.6,8.6c0,4.7472 -3.8528,8.6 -8.6,8.6c-4.7472,0 -8.6,-3.8528 -8.6,-8.6c0,-4.7472 3.8528,-8.6 8.6,-8.6zM65.93333,74.53333c4.7472,0 8.6,3.8528 8.6,8.6c0,4.7472 -3.8528,8.6 -8.6,8.6c-4.7472,0 -8.6,-3.8528 -8.6,-8.6c0,-4.7472 3.8528,-8.6 8.6,-8.6zM124.87773,115.38333c-0.53893,0.6708 -13.44467,16.48333 -36.01107,16.48333c-22.5664,0 -35.47213,-15.81253 -36.01107,-16.48333c-1.978,-2.4768 -1.57667,-6.08307 0.8944,-8.06107c2.46533,-1.978 6.08307,-1.57667 8.05533,0.8944c0.3956,0.47587 10.148,12.18333 27.06133,12.18333c17.114,0 26.95813,-12.06293 27.0556,-12.18333c1.978,-2.47107 5.59,-2.8724 8.05533,-0.8944c2.4768,1.978 2.87813,5.58427 0.90013,8.06107z"></path></g></g></svg>