<svg xmlns="http://www.w3.org/2000/svg" x="0px" y="0px"
width="50" height="50"
viewBox="0 0 172 172"
style=" fill:#000000;"><g fill="none" fill-rule="nonzero" stroke="none" stroke-width="1" stroke-linecap="butt" stroke-linejoin="miter" stroke-miterlimit="10" stroke-dasharray="" stroke-dashoffset="0" font-family="none" font-weight="none" font-size="none" text-anchor="none" style="mix-blend-mode: normal"><path d="M0,172v-172h172v172z" fill="none"></path><g fill="#3fa6ea"><path d="M86,27.95c-17.3501,0 -31.79317,12.16155 -35.51279,28.40772c-10.50806,1.36211 -18.89556,8.9258 -21.4874,19.00566c-16.07936,0.5938 -28.9998,13.76458 -28.9998,29.98662c0,16.59884 13.50116,30.1 30.1,30.1h15.05c0.77537,0.01097 1.49657,-0.39641 1.88746,-1.06613c0.39088,-0.66972 0.39088,-1.49803 0,-2.16775c-0.39088,-0.66972 -1.11209,-1.07709 -1.88746,-1.06613h-15.05c-14.27516,0 -25.8,-11.52484 -25.8,-25.8c0,-14.27516 11.52484,-25.8 25.8,-25.8c-0.06396,0 0.06816,0.021 0.40732,0.021h1.79307l0.0042,-0.0252c1.16441,-0.02957 2.09351,-0.98102 2.09541,-2.1458c-0.00148,-0.81629 -0.4651,-1.56133 -1.19678,-1.92324c2.53865,-8.39935 10.05004,-14.61867 19.14844,-15.20537l1.23037,-0.07559c0.05591,0.00359 0.11195,0.00499 0.16797,0.0042c1.18741,0 2.15,-0.96259 2.15,-2.15c-0.00013,-0.75233 -0.39349,-1.44987 -1.03721,-1.83926c3.6591,-13.78776 16.17447,-23.96074 31.13721,-23.96074c13.83124,0 25.55965,8.70312 30.15459,20.90791l0.0168,0.04619c-0.04709,0.17815 -0.07108,0.36162 -0.07139,0.5459c0,1.18741 0.96259,2.15 2.15,2.15c1.02272,0.00053 1.90426,-0.71946 2.10801,-1.72168c1.42204,-0.25095 2.8627,-0.42832 4.34199,-0.42832c14.27516,0 25.8,11.52484 25.8,25.8c0,2.26003 -0.31918,4.45205 -0.87764,6.57178l-0.5627,2.129l2.1416,0.50811c9.45499,2.25677 16.49873,10.72064 16.49873,20.89111c0,11.89925 -9.60075,21.5 -21.5,21.5h-15.05c-0.77537,-0.01097 -1.49657,0.39641 -1.88746,1.06613c-0.39088,0.66972 -0.39088,1.49803 0,2.16775c0.39088,0.66972 1.11209,1.07709 1.88746,1.06613h15.05c14.22325,0 25.8,-11.57675 25.8,-25.8c0,-11.45489 -7.61232,-20.9434 -17.97266,-24.29668c0.38386,-1.88902 0.77266,-3.78422 0.77266,-5.80332c0,-16.59884 -13.50116,-30.1 -30.1,-30.1c-1.86653,0 -3.62558,0.32979 -5.3792,0.65928c-5.6176,-12.96372 -18.31263,-22.15928 -33.3208,-22.15928zM62.35,55.9c-1.18741,0 -2.15,0.96259 -2.15,2.15c0,1.18741 0.96259,2.15 2.15,2.15c1.18741,0 2.15,-0.96259 2.15,-2.15c0,-1.18741 -0.96259,-2.15 -2.15,-2.15zM70.95,60.2c-1.18741,0 -2.15,0.96259 -2.15,2.15c0,1.18741 0.96259,2.15 2.15,2.15c1.18741,0 2.15,-0.96259 2.15,-2.15c0,-1.18741 -0.96259,-2.15 -2.15,-2.15zM120.4,60.2c-1.18741,0 -2.15,0.96259 -2.15,2.15c0,1.18741 0.96259,2.15 2.15,2.15c1.18741,0 2.15,-0.96259 2.15,-2.15c0,-1.18741 -0.96259,-2.15 -2.15,-2.15zM77.4,66.65c-1.18741,0 -2.15,0.96259 -2.15,2.15c0,1.18741 0.96259,2.15 2.15,2.15c1.18741,0 2.15,-0.96259 2.15,-2.15c0,-1.18741 -0.96259,-2.15 -2.15,-2.15zM120.4,68.8c-1.18741,0 -2.15,0.96259 -2.15,2.15c0,1.18741 0.96259,2.15 2.15,2.15c1.18741,0 2.15,-0.96259 2.15,-2.15c0,-1.18741 -0.96259,-2.15 -2.15,-2.15zM40.85,75.25c-1.18741,0 -2.15,0.96259 -2.15,2.15c0,1.18741 0.96259,2.15 2.15,2.15c1.18741,0 2.15,-0.96259 2.15,-2.15c0,-1.18741 -0.96259,-2.15 -2.15,-2.15zM49.45,79.55c-1.18741,0 -2.15,0.96259 -2.15,2.15c0,1.18741 0.96259,2.15 2.15,2.15c1.18741,0 2.15,-0.96259 2.15,-2.15c0,-1.18741 -0.96259,-2.15 -2.15,-2.15zM75.25,92.45c-2.37482,0 -4.3,1.92518 -4.3,4.3c0,2.37482 1.92518,4.3 4.3,4.3c2.37482,0 4.3,-1.92518 4.3,-4.3c0,-2.37482 -1.92518,-4.3 -4.3,-4.3zM101.05,92.45c-2.37482,0 -4.3,1.92518 -4.3,4.3c0,2.37482 1.92518,4.3 4.3,4.3c2.37482,0 4.3,-1.92518 4.3,-4.3c0,-2.37482 -1.92518,-4.3 -4.3,-4.3zM148.35,92.45c-1.18741,0 -2.15,0.96259 -2.15,2.15c0,1.18741 0.96259,2.15 2.15,2.15c1.18741,0 2.15,-0.96259 2.15,-2.15c0,-1.18741 -0.96259,-2.15 -2.15,-2.15zM144.05,98.9c-1.18741,0 -2.15,0.96259 -2.15,2.15c0,1.18741 0.96259,2.15 2.15,2.15c1.18741,0 2.15,-0.96259 2.15,-2.15c0,-1.18741 -0.96259,-2.15 -2.15,-2.15zM77.4,111.8c0,5.93615 4.81385,10.75 10.75,10.75c5.93615,0 10.75,-4.81385 10.75,-10.75zM53.75,131.15c-1.18741,0 -2.15,0.96259 -2.15,2.15c0,1.18741 0.96259,2.15 2.15,2.15c1.18741,0 2.15,-0.96259 2.15,-2.15c0,-1.18741 -0.96259,-2.15 -2.15,-2.15zM62.35,131.15c-1.18741,0 -2.15,0.96259 -2.15,2.15c0,1.18741 0.96259,2.15 2.15,2.15c1.18741,0 2.15,-0.96259 2.15,-2.15c0,-1.18741 -0.96259,-2.15 -2.15,-2.15zM70.95,131.15c-1.18741,0 -2.15,0.96259 -2.15,2.15c0,1.18741 0.96259,2.15 2.15,2.15c1.18741,0 2.15,-0.96259 2.15,-2.15c0,-1.18741 -0.96259,-2.15 -2.15,-2.15zM79.55,131.15c-1.18741,0 -2.15,0.96259 -2.15,2.15c0,1.18741 0.96259,2.15 2.15,2.15c1.18741,0 2.15,-0.96259 2.15,-2.15c0,-1.18741 -0.96259,-2.15 -2.15,-2.15zM88.15,131.15c-1.18741,0 -2.15,0.96259 -2.15,2.15c0,1.18741 0.96259,2.15 2.15,2.15c1.18741,0 2.15,-0.96259 2.15,-2.15c0,-1.18741 -0.96259,-2.15 -2.15,-2.15zM96.75,131.15c-1.18741,0 -2.15,0.96259 -2.15,2.15c0,1.18741 0.96259,2.15 2.15,2.15c1.18741,0 2.15,-0.96259 2.15,-2.15c0,-1.18741 -0.96259,-2.15 -2.15,-2.15zM105.35,131.15c-1.18741,0 -2.15,0.96259 -2.15,2.15c0,1.18741 0.96259,2.15 2.15,2.15c1.18741,0 2.15,-0.96259 2.15,-2.15c0,-1.18741 -0.96259,-2.15 -2.15,-2.15zM113.95,131.15c-1.18741,0 -2.15,0.96259 -2.15,2.15c0,1.18741 0.96259,2.15 2.15,2.15c1.18741,0 2.15,-0.96259 2.15,-2.15c0,-1.18741 -0.96259,-2.15 -2.15,-2.15zM122.55,131.15c-1.18741,0 -2.15,0.96259 -2.15,2.15c0,1.18741 0.96259,2.15 2.15,2.15c1.18741,0 2.15,-0.96259 2.15,-2.15c0,-1.18741 -0.96259,-2.15 -2.15,-2.15z"></path></g></g></svg>